<svg width="34" height="44" viewBox="0 0 34 44" fill="none" xmlns="http://www.w3.org/2000/svg">
<path d="M31.6235 0.420588C28.8929 1.38885 26.5232 3.21488 24.8457 5.64344C23.1682 8.072 22.2666 10.9817 22.2671 13.9658V20.9377C22.2693 21.9818 22.6716 22.9825 23.3858 23.7208C24.1 24.4591 25.0681 24.875 26.0781 24.8773H31.859V42.8934C31.859 43.1869 31.9718 43.4683 32.1725 43.6759C32.3733 43.8834 32.6456 44 32.9295 44C33.2121 43.9954 33.4818 43.8774 33.6816 43.6708C33.8814 43.4643 33.9956 43.1854 34.0001 42.8934V1.1067C33.9956 0.814628 33.8814 0.535795 33.6816 0.329241C33.4818 0.122687 33.2121 0.00462959 32.9295 6.50838e-05C32.8053 -0.00137648 32.6818 0.0211409 32.5655 0.0664633L31.6235 0.420588ZM26.0781 22.664C25.6354 22.6634 25.211 22.4814 24.8979 22.1577C24.5848 21.8341 24.4087 21.3953 24.4081 20.9377V13.9658C24.4096 11.5284 25.1211 9.14793 26.4501 7.13456C27.7791 5.12119 29.664 3.56827 31.859 2.67813V22.664H26.0781Z" fill="#2E5BA0"/>
<path d="M15.801 0.0221558C15.5171 0.0221558 15.2448 0.138748 15.044 0.346283C14.8433 0.553818 14.7305 0.835295 14.7305 1.12879V12.1509H9.5063V1.12879C9.5063 0.835295 9.39351 0.553818 9.19275 0.346283C8.99198 0.138748 8.71969 0.0221558 8.43577 0.0221558C8.15185 0.0221558 7.87955 0.138748 7.67879 0.346283C7.47803 0.553818 7.36524 0.835295 7.36524 1.12879V12.1509H2.14106V1.12879C2.14106 0.835295 2.02827 0.553818 1.82751 0.346283C1.62674 0.138748 1.35445 0.0221558 1.07053 0.0221558C0.786607 0.0221558 0.514314 0.138748 0.313551 0.346283C0.112788 0.553818 0 0.835295 0 1.12879V15.4708C0.00395491 16.9371 0.569162 18.3421 1.57212 19.3789C2.57508 20.4157 3.93425 20.9999 5.35264 21.004H7.36524V42.8933C7.36966 43.1854 7.48386 43.4642 7.68367 43.6708C7.88349 43.8773 8.15322 43.9954 8.43577 44C8.71969 44 8.99198 43.8834 9.19275 43.6758C9.39351 43.4683 9.5063 43.1868 9.5063 42.8933V21.004H11.5189C12.9385 21.004 14.3 20.4211 15.3038 19.3834C16.3076 18.3457 16.8715 16.9383 16.8715 15.4708V1.12879C16.8715 0.835295 16.7587 0.553818 16.558 0.346283C16.3572 0.138748 16.0849 0.0221558 15.801 0.0221558ZM14.7305 15.4708C14.7305 16.3513 14.3921 17.1958 13.7898 17.8184C13.1875 18.441 12.3707 18.7907 11.5189 18.7907H5.35264C4.50278 18.7844 3.68948 18.4325 3.08852 17.8113C2.48757 17.1901 2.14722 16.3494 2.14106 15.4708V14.3642H14.7305V15.4708Z" fill="#2E5BA0"/>
</svg>
