<svg width="63" height="59" viewBox="0 0 63 59" fill="none" xmlns="http://www.w3.org/2000/svg">
<path d="M31.5 47.5964C42.5688 47.5964 51.5419 39.1931 51.5419 28.8271C51.5419 18.461 42.5688 10.0577 31.5 10.0577C20.4312 10.0577 11.4581 18.461 11.4581 28.8271C11.4581 39.1931 20.4312 47.5964 31.5 47.5964Z" stroke="#2E5BA0" stroke-width="2"/>
<path d="M30.87 15.2847V29.4908L38.1544 34.7178" stroke="#2E5BA0" stroke-width="2" stroke-linecap="round"/>
<path d="M13.4269 49.2558L17.9648 42.6828" stroke="#2E5BA0" stroke-width="2" stroke-linecap="round"/>
<path d="M45.1237 42.6828L49.6617 49.2558" stroke="#2E5BA0" stroke-width="2" stroke-linecap="round"/>
<path d="M9.00703 17.8844C7.85253 16.7742 7.20648 15.2857 7.20648 13.736C7.20648 12.1862 7.85253 10.6978 9.00703 9.58752C9.56782 9.04499 10.2394 8.6136 10.9817 8.31899C11.7241 8.02438 12.5222 7.87256 13.3284 7.87256C14.1347 7.87256 14.9328 8.02438 15.6751 8.31899C16.4175 8.6136 17.089 9.04499 17.6498 9.58752L9.00703 17.8844Z" stroke="#2E5BA0" stroke-width="2"/>
<path d="M54.0127 17.8844C55.1672 16.7742 55.8132 15.2857 55.8132 13.736C55.8132 12.1862 55.1672 10.6978 54.0127 9.58752C53.4519 9.04499 52.7803 8.6136 52.0379 8.31899C51.2956 8.02438 50.4975 7.87256 49.6912 7.87256C48.885 7.87256 48.0869 8.02438 47.3446 8.31899C46.6022 8.6136 45.9306 9.04499 45.3698 9.58752L54.0127 17.8844Z" stroke="#2E5BA0" stroke-width="2"/>
</svg>
