<svg width="104" height="102" viewBox="0 0 104 102" fill="none" xmlns="http://www.w3.org/2000/svg">
<path d="M102.215 51C102.215 78.3146 79.6932 100.5 51.8577 100.5C24.0222 100.5 1.5 78.3146 1.5 51C1.5 23.6854 24.0222 1.5 51.8577 1.5C79.6932 1.5 102.215 23.6854 102.215 51Z" fill="#7EB2DD" stroke="#7EB2DD" stroke-width="3"/>
<path d="M70.2042 30.3876C70.156 30.3099 70.0971 30.2476 70.0275 30.2005C69.958 30.1534 69.8827 30.1307 69.8019 30.1324C69.7341 30.1316 69.6452 30.1447 69.5352 30.1717C69.3783 30.2007 69.2281 30.2118 69.0848 30.205C68.9546 30.1958 68.7498 30.1305 68.4703 30.009C68.3514 29.9511 68.2571 29.8986 68.1876 29.8515C67.8629 29.6319 67.5709 29.3329 67.3116 28.9547C67.0653 28.5741 66.9383 28.2346 66.9305 27.9364C66.9257 27.6177 67.0127 27.3386 67.1916 27.099C67.4561 26.7372 67.8675 26.4746 68.4258 26.3115C68.9656 26.1584 69.4062 26.0902 69.7474 26.107C70.0965 26.1291 70.4969 26.2648 70.9489 26.5142C71.0416 26.5769 71.1838 26.6505 71.3752 26.735C71.5744 26.8247 71.6927 26.8427 71.7302 26.7892C71.8051 26.6821 71.8217 26.5525 71.78 26.4004C71.7515 26.2459 71.5903 26.0693 71.2965 25.8705C71.1883 25.7973 71.0206 25.6951 70.7935 25.564C70.5663 25.4329 70.4102 25.3385 70.3252 25.281C70.0623 25.1032 69.9024 24.933 69.8452 24.7705C69.825 24.7342 69.8604 24.6511 69.9513 24.5211C70.1118 24.2917 70.2946 24.2012 70.4997 24.2499C70.9178 24.3524 71.3072 24.5201 71.6682 24.753C72.1166 25.0563 72.4606 25.4355 72.7003 25.8906C72.9531 26.3433 73.0668 26.7751 73.0413 27.186C73.0158 27.597 72.851 28.0769 72.5467 28.626C72.2073 29.2414 71.7274 29.9927 71.1068 30.8799C70.9357 31.1247 70.8019 31.2426 70.7056 31.2338C70.617 31.2302 70.5456 31.2101 70.4915 31.1735C70.4219 31.1264 70.3696 31.0629 70.3345 30.9828C70.3125 30.9003 70.2934 30.7973 70.2774 30.6737C70.2666 30.5425 70.2422 30.4472 70.2042 30.3876ZM68.4683 29.0105C68.9065 29.1492 69.3825 29.2177 69.8962 29.2159C70.011 29.2147 70.1287 29.1929 70.2494 29.1506C70.3701 29.1084 70.4462 29.081 70.4777 29.0685C70.5092 29.056 70.5662 28.9988 70.6489 28.897C70.7446 28.7927 70.8126 28.7036 70.853 28.6295C70.8614 28.6013 70.8887 28.5297 70.935 28.4146C70.9891 28.3047 71.0236 28.1984 71.0384 28.0958C71.0426 28.0084 71.0208 27.9092 70.9732 27.7982C70.9257 27.6871 70.8644 27.6119 70.7895 27.5725C70.6372 27.4807 70.4413 27.4271 70.2017 27.4115C69.9621 27.3958 69.71 27.4225 69.4454 27.4914C69.1755 27.5679 68.9338 27.6692 68.7204 27.7952C68.5201 27.9188 68.3664 28.0571 68.2594 28.2101C68.1305 28.4271 68.0921 28.6039 68.1445 28.7408C68.1719 28.8156 68.2242 28.8792 68.3015 28.9315C68.3634 28.9733 68.4189 28.9997 68.4683 29.0105Z" fill="#FFF8E3"/>
<path d="M78.9972 32.535C78.9529 32.5694 78.8881 32.6079 78.8027 32.6506C78.7247 32.6876 78.6776 32.7183 78.6613 32.7428C79.1752 33.1589 79.5724 33.5416 79.853 33.8909C80.2914 34.4366 80.3563 35.0539 80.0478 35.7427C79.7795 36.3176 79.3726 36.8169 78.8272 37.2406C78.6872 37.3494 78.4728 37.4924 78.1841 37.6694C77.9897 37.785 77.7904 37.8276 77.5864 37.7971C77.3897 37.7608 77.227 37.6627 77.0984 37.5026C76.964 37.3352 76.897 37.1923 76.8975 37.0737C76.9112 36.9567 76.9528 36.8594 77.0222 36.7818C77.0974 36.7116 77.2234 36.6077 77.4003 36.4703L77.6237 36.279C78.0542 35.9208 78.4141 35.5939 78.7033 35.2983C78.8184 35.1734 78.8696 35.0509 78.8569 34.9308C78.8574 34.8122 78.808 34.6911 78.7086 34.5674C78.6151 34.4509 78.4856 34.327 78.3201 34.1956C78.0551 33.9997 77.869 33.8725 77.762 33.8138C77.6609 33.7624 77.4871 33.7024 77.2405 33.634C77.1628 33.6117 77.0598 33.6326 76.9318 33.6966C76.8037 33.7607 76.7323 33.7985 76.7175 33.8099C76.1698 34.0818 75.5242 34.4181 74.7806 34.8186C74.7453 34.8342 74.6636 34.8741 74.5355 34.9381C74.4074 35.0022 74.2949 35.0187 74.1981 34.9875C74.0997 34.9694 74.0112 34.8964 73.9324 34.7686C73.6231 34.2643 73.6313 33.8798 73.9571 33.6148C74.3788 33.2754 74.9099 32.9158 75.5506 32.5362C76.0116 32.2607 76.3886 32.0446 76.6817 31.8878C76.8113 31.8107 76.9696 31.7173 77.1566 31.6074C77.3495 31.5048 77.5653 31.3785 77.8039 31.2285C77.991 31.1186 78.1338 31.0431 78.2324 31.002C78.331 30.9608 78.4383 30.9602 78.5542 31.0001C78.6774 31.0344 78.8063 31.1351 78.9407 31.3025C79.1102 31.5135 79.2026 31.7254 79.2179 31.9381C79.2331 32.1507 79.1669 32.344 79.0193 32.5178L78.9972 32.535Z" fill="#FFF8E3"/>
<path d="M18.4277 43.7992C18.0798 43.6382 17.7624 43.4887 17.4756 43.3507C17.1801 43.2095 16.9152 43.0797 16.6808 42.9615L15.6733 42.4622C15.5139 43.1801 15.4336 43.9776 15.4324 44.8548C15.4311 45.0638 15.4 45.2465 15.339 45.403C15.2476 45.6379 15.0974 45.8306 14.8884 45.9813C14.6829 46.1232 14.4315 46.203 14.1341 46.2207C13.9623 46.0961 13.8555 45.9461 13.8136 45.7708C13.7751 45.5867 13.757 45.3505 13.7591 45.0621C13.7846 43.6854 14.1049 42.2204 14.7201 40.6669C15.0081 39.9277 15.3384 39.1696 15.7113 38.3925C16.0875 37.6067 16.307 37.1459 16.37 37.0101L16.7912 36.1216C16.8048 36.0868 16.8268 36.0303 16.8573 35.952C16.8912 35.865 16.9401 35.8037 17.0041 35.768C17.0593 35.7289 17.1307 35.7259 17.218 35.7588C17.4363 35.8411 17.502 36.0453 17.415 36.3716C17.1974 37.1872 17.0417 37.7668 16.9479 38.1105C16.8333 38.4562 16.7508 38.7193 16.7005 38.8999C16.4799 39.5947 16.3167 40.1166 16.2107 40.4656C16.1469 40.6809 16.1172 40.8343 16.1217 40.9257C16.1174 41.0139 16.1494 41.0858 16.2179 41.1415C16.281 41.1852 16.427 41.2602 16.6561 41.3665C17.1894 41.6173 18.1015 42.0656 19.3923 42.7115C20.5521 43.3081 21.3567 43.711 21.806 43.9202C22.0559 44.0243 22.3396 44.196 22.657 44.4353C22.857 44.5904 22.9878 44.7045 23.0495 44.7776C23.1024 44.8474 23.1207 44.9291 23.1043 45.0227C23.0913 45.1075 23.0363 45.2613 22.9395 45.4842C22.8752 45.6494 22.7894 45.7667 22.6823 45.836C22.5698 45.8934 22.448 45.8974 22.317 45.848C22.2908 45.8382 22.2374 45.8081 22.1569 45.7578C21.4716 45.2801 20.2285 44.6273 18.4277 43.7992Z" fill="#FFF8E3"/>
<path d="M22.6416 31.08C23.3279 31.6707 23.9044 32.1464 24.3712 32.5069C24.8372 32.8544 25.369 33.1851 25.9664 33.499C26.1249 33.1164 26.314 32.8043 26.5337 32.5625C26.904 32.155 27.3468 31.9106 27.8621 31.8292C28.3773 31.7478 28.8643 31.8155 29.323 32.0323C29.6647 32.1836 30.0599 32.4564 30.5086 32.8507L31.3194 33.582C31.3685 33.6251 31.3995 33.702 31.4123 33.8127C31.4252 33.9235 31.4136 34.0126 31.3774 34.0802C31.3656 34.1071 31.3408 34.1412 31.3031 34.1827C31.1588 34.3415 30.9275 34.4365 30.6094 34.4674C30.2982 34.5046 30.0624 34.4588 29.9019 34.3302L29.3362 33.8703C29.21 33.7594 29.0215 33.6061 28.7706 33.4104C28.5127 33.2086 28.3123 33.0822 28.1695 33.0312C28.0126 32.9679 27.8744 32.9396 27.7548 32.9463C27.6352 32.953 27.5409 32.9944 27.4719 33.0703C27.4217 33.1256 27.3897 33.2093 27.376 33.3215C27.3686 33.4268 27.385 33.5406 27.4252 33.6629C27.5247 34.0113 27.8078 34.6017 28.2744 35.4343C28.4507 35.7259 28.451 35.9684 28.2752 36.1618C28.2564 36.1826 28.2086 36.2213 28.1318 36.278C28.0801 36.3072 27.9869 36.3681 27.8521 36.4609C27.7104 36.5475 27.5731 36.5945 27.4402 36.602C27.3136 36.6026 27.1837 36.5443 27.0505 36.4272C25.7255 35.2627 24.5562 34.3778 23.5425 33.7727C23.0388 33.4666 22.5031 33.0641 21.9352 32.565L21.2307 31.9458L20.8626 31.6223C20.7645 31.536 20.7274 31.4103 20.7515 31.2451C20.7755 31.0798 20.8472 30.9316 20.9664 30.8004C21.0669 30.6898 21.1762 30.6182 21.2943 30.5853C21.5039 30.5211 21.697 30.5168 21.8734 30.5725C22.056 30.6212 22.242 30.7288 22.4313 30.8951L22.6416 31.08Z" fill="#FFF8E3"/>
<path d="M34.4805 27.8218C34.4303 27.9176 34.3294 28.0114 34.1777 28.1032C34.1218 28.1371 34.0515 28.1742 33.9667 28.2146C33.8819 28.255 33.814 28.2961 33.7631 28.3378C33.9903 28.5603 34.2757 28.6821 34.6192 28.7032C34.9578 28.7165 35.2748 28.6337 35.5702 28.4549C35.8257 28.3002 36.0186 28.1071 36.149 27.8755C36.3503 27.5464 36.4944 27.2137 36.5813 26.8775C36.6389 26.6354 36.7356 26.4732 36.8713 26.3911C36.9592 26.3379 37.0623 26.3355 37.1806 26.3839C37.3088 26.4481 37.42 26.5553 37.5141 26.7057C37.6131 26.8639 37.6579 27.0059 37.6485 27.1316C37.6389 27.5737 37.5036 27.9556 37.2425 28.2772C36.9894 28.5941 36.6433 28.8854 36.2041 29.1512C35.749 29.4266 35.2479 29.5935 34.701 29.6519C34.154 29.7102 33.6224 29.6611 33.1061 29.5046C32.5928 29.3353 32.157 29.0699 31.7988 28.7086C31.5814 28.502 31.3985 28.28 31.2499 28.0427C31.0172 27.6708 30.9329 27.3073 30.9969 26.9522C31.0689 26.5923 31.2761 26.1669 31.6185 25.6761C31.9358 25.2331 32.2781 24.9005 32.6454 24.6782C32.9089 24.5187 33.1891 24.4036 33.4862 24.3329C34.4012 24.1063 34.9875 24.1987 35.2449 24.6102C35.4083 24.8712 35.4507 25.282 35.372 25.8423C35.3292 26.1082 35.2461 26.3712 35.1226 26.6313C34.9992 26.8915 34.8724 27.1374 34.742 27.369C34.6148 27.5878 34.5276 27.7387 34.4805 27.8218ZM33.6096 25.3218C33.5768 25.2871 33.5251 25.2748 33.4544 25.2849C33.3866 25.2822 33.3463 25.2793 33.3334 25.2763C33.1079 25.3909 32.9279 25.5871 32.7935 25.8648C32.6541 26.1347 32.5754 26.4223 32.5573 26.7277C32.5473 27.0284 32.6041 27.2776 32.7279 27.4754L32.7993 27.563C32.8271 27.5899 32.8918 27.6053 32.9934 27.6092C33.1029 27.6084 33.1607 27.5952 33.1668 27.5697C33.4713 26.8073 33.688 26.2124 33.8171 25.7853C33.8353 25.7088 33.8047 25.6073 33.7255 25.4807C33.676 25.4016 33.6374 25.3486 33.6096 25.3218Z" fill="#FFF8E3"/>
<path d="M52.1368 15.7353C52.652 15.7849 53.0895 16.0377 53.4494 16.4936C53.3338 16.6745 53.2073 16.8091 53.07 16.8973C52.9417 16.976 52.7798 17.0229 52.5842 17.0382C51.7729 17.0724 51.0789 17.1263 50.5023 17.1999C49.935 17.2733 49.3345 17.4784 48.7008 17.8152C48.0765 18.1518 47.7334 18.6712 47.6715 19.3734C47.4358 19.8942 47.3289 20.4997 47.3507 21.1901C47.3619 21.5445 47.4182 21.9957 47.5195 22.5435C47.6539 23.2491 48.0149 23.5929 48.6027 23.5749C48.7519 23.5704 48.8682 23.5575 48.9516 23.5362C49.4434 23.4372 49.9319 23.2355 50.4172 22.9312C50.6915 22.7454 50.965 22.5363 51.2378 22.3038C51.5103 22.0621 51.674 21.9217 51.7288 21.8826L52.0833 21.5777C52.183 21.4812 52.255 21.395 52.2993 21.3189C52.3526 21.2333 52.3773 21.1298 52.3735 21.0085C52.372 20.9619 52.3605 20.8922 52.3389 20.7995C52.0226 20.8372 51.5571 20.8841 50.9426 20.9402L50.5377 20.9806C50.361 21.0047 50.0957 21.0315 49.7418 21.0609C49.3593 21.0726 49.0533 20.9933 48.8239 20.8229C48.6034 20.6429 48.4259 20.3448 48.2913 19.9287C48.3187 19.9092 48.3505 19.8802 48.3866 19.8418C48.4228 19.8033 48.4548 19.7837 48.4828 19.7828L48.9708 19.7119C50.0395 19.5485 50.8533 19.4442 51.4122 19.3992C51.8684 19.3572 52.4013 19.3783 53.011 19.4623C53.855 19.5766 54.287 19.9509 54.3071 20.5853C54.3145 20.8185 54.2755 21.0625 54.1901 21.3172C54.1479 21.4585 54.0784 21.6241 53.9817 21.8138C53.7816 22.2774 53.5003 22.6829 53.1377 23.0301C52.7752 23.3774 52.3329 23.713 51.8109 24.0371C51.399 24.3018 51.0367 24.509 50.7239 24.6586C50.4112 24.8082 50.078 24.9025 49.7244 24.9413C49.6407 24.9532 49.5102 24.9618 49.333 24.9673C48.5214 24.9921 47.7757 24.7394 47.0959 24.2092C46.7606 23.9394 46.4993 23.6485 46.312 23.3368C46.1338 23.0154 46.0242 22.6499 45.9832 22.2403C45.9557 21.961 45.9402 21.7654 45.9366 21.6535C45.9198 21.1217 45.9695 20.6253 46.0857 20.1642C46.2016 19.6938 46.4259 18.9633 46.7588 17.9726C47.0976 17.1686 47.6678 16.5956 48.4694 16.2536C49.2707 15.9023 50.1238 15.7128 51.0287 15.6851C51.4112 15.6734 51.7806 15.6902 52.1368 15.7353Z" fill="#FFF8E3"/>
<path d="M61.8075 20.5958C61.8051 20.6929 61.7643 20.8318 61.6853 21.0123L61.0092 22.5307C61.0654 22.5094 61.1729 22.4065 61.3318 22.222C61.4936 22.0286 61.6364 21.8782 61.7602 21.7706C61.8869 21.6542 61.9798 21.5809 62.0388 21.5507C62.588 21.2847 63.1382 21.1952 63.6892 21.2823C64.2402 21.3694 64.83 21.5178 65.4586 21.7275C65.5208 21.7473 65.5788 21.7951 65.6324 21.8709C65.6979 21.9407 65.7248 21.9933 65.7132 22.0288C65.7044 22.0554 65.6617 22.0957 65.585 22.1496C65.5112 22.1947 65.4492 22.219 65.3989 22.2226C64.8069 22.2303 64.2685 22.2843 63.7835 22.3847C63.3075 22.4879 62.8615 22.6791 62.4455 22.9581C61.4632 23.6153 60.7656 24.3924 60.3527 25.2894C60.2444 25.5292 60.1134 25.6736 59.9597 25.7226C59.809 25.7628 59.6224 25.7476 59.4001 25.6769C59.151 25.5977 58.9636 25.4206 58.8379 25.1455C58.7122 24.8705 58.6916 24.6044 58.7762 24.3473C59.0941 23.4103 59.5621 22.002 60.1801 20.1223C60.2646 19.8652 60.3807 19.7062 60.5284 19.6455C60.6791 19.5759 60.9056 19.5891 61.208 19.6853C61.4303 19.756 61.5967 19.8775 61.7071 20.0497C61.8264 20.2247 61.8599 20.4068 61.8075 20.5958Z" fill="#FFF8E3"/>
<path d="M82.3022 45.7492C82.1604 45.8222 81.9934 45.9596 81.8013 46.1612C81.7643 46.195 81.723 46.2304 81.6773 46.2674C81.635 46.3132 81.5839 46.3622 81.5241 46.4146C81.2434 46.1809 81.0693 45.9771 81.0019 45.803C80.9513 45.6725 80.9434 45.5359 80.9782 45.3933C81.0217 45.2474 81.1083 45.0704 81.2379 44.8624C81.3198 44.7121 81.3472 44.6021 81.3202 44.5325C81.2932 44.4629 81.2078 44.4102 81.0638 44.3745C80.7342 44.2987 80.4532 44.1548 80.2209 43.9429C79.992 43.7396 79.8219 43.4944 79.7106 43.2072C79.5858 42.8852 79.5387 42.5441 79.5692 42.1838C79.6119 41.829 79.7322 41.5197 79.9304 41.2561C80.1338 40.9805 80.5021 40.7428 81.0352 40.543C81.4198 40.3988 81.8289 40.3053 82.2627 40.2623C82.6964 40.2193 83.0771 40.246 83.4048 40.3425C83.7741 40.4432 84.0975 40.6061 84.3748 40.831C84.6609 41.0527 84.8714 41.3376 85.0063 41.6857C85.0502 41.7988 85.0795 41.8875 85.0944 41.9517C85.0958 41.9811 85.1066 42.0219 85.1268 42.0741C85.2044 42.2743 85.3393 42.3383 85.5316 42.2662L85.6314 42.2139C86.5892 41.7153 87.2856 41.3297 87.7204 41.0571C87.7607 41.032 87.8256 40.9927 87.915 40.9393C88.0043 40.8859 88.0796 40.8477 88.1408 40.8248C88.2632 40.7789 88.3782 40.7657 88.4858 40.7851C88.6022 40.8013 88.7162 40.8632 88.828 40.9708C88.8744 41.0132 88.9112 41.0692 88.9381 41.1388C89.009 41.3216 89.022 41.536 88.9772 41.782C88.9412 42.0248 88.8556 42.1914 88.7205 42.2819C88.2293 42.6155 87.573 43.0011 86.7516 43.4385L84.85 44.4204C83.7154 45.0051 82.8661 45.4481 82.3022 45.7492ZM82.5901 41.6495C82.1045 41.6621 81.6826 41.7355 81.3243 41.8698C80.8261 42.0566 80.5265 42.3682 80.4254 42.8048C80.5581 42.9145 80.6876 42.9905 80.8141 43.0328C80.9527 43.0805 81.1401 43.1249 81.3762 43.166L81.6809 43.2162C82.0469 43.3083 82.4208 43.3176 82.8028 43.2442C83.1881 43.1795 83.6594 43.0527 84.2167 42.8637C84.2988 42.843 84.3794 42.7928 84.4587 42.7132C84.5501 42.6391 84.5917 42.5787 84.5836 42.5319C84.5741 42.4557 84.5067 42.3464 84.3814 42.204C84.2649 42.0583 84.1676 41.9752 84.0896 41.9546C83.776 41.8429 83.5083 41.7588 83.2863 41.7025C83.0676 41.6549 82.8356 41.6372 82.5901 41.6495Z" fill="#FFF8E3"/>
<path d="M29.4939 59.672L25.6859 71H21.0939L17.2859 59.672H21.0619L23.3979 67.464L25.7179 59.672H29.4939ZM34.577 71.112C33.6703 71.112 32.8543 70.9253 32.129 70.552C31.4037 70.1787 30.833 69.6453 30.417 68.952C30.0117 68.248 29.809 67.4267 29.809 66.488C29.809 65.5493 30.0117 64.7333 30.417 64.04C30.833 63.336 31.4037 62.7973 32.129 62.424C32.8543 62.0507 33.6703 61.864 34.577 61.864C35.4837 61.864 36.2997 62.0507 37.025 62.424C37.7503 62.7973 38.3157 63.336 38.721 64.04C39.137 64.7333 39.345 65.5493 39.345 66.488C39.345 67.4267 39.137 68.248 38.721 68.952C38.3157 69.6453 37.7503 70.1787 37.025 70.552C36.2997 70.9253 35.4837 71.112 34.577 71.112ZM34.577 68.04C34.9077 68.04 35.185 67.912 35.409 67.656C35.633 67.3893 35.745 67 35.745 66.488C35.745 65.976 35.633 65.592 35.409 65.336C35.185 65.0693 34.9077 64.936 34.577 64.936C34.2463 64.936 33.969 65.0693 33.745 65.336C33.521 65.592 33.409 65.976 33.409 66.488C33.409 67 33.5157 67.3893 33.729 67.656C33.953 67.912 34.2357 68.04 34.577 68.04ZM50.6529 61.976L44.8769 75.32H40.9889L43.2609 70.552L39.5009 61.976H43.4529L45.1489 66.552L46.7329 61.976H50.6529ZM50.809 66.488C50.809 65.5387 50.969 64.7173 51.289 64.024C51.6197 63.32 52.0677 62.7867 52.633 62.424C53.1983 62.0507 53.833 61.864 54.537 61.864C55.1237 61.864 55.6303 61.9867 56.057 62.232C56.4837 62.4667 56.809 62.792 57.033 63.208V61.976H60.569V71H57.033V69.768C56.809 70.184 56.4837 70.5147 56.057 70.76C55.6303 70.9947 55.1237 71.112 54.537 71.112C53.833 71.112 53.1983 70.9307 52.633 70.568C52.0677 70.1947 51.6197 69.6613 51.289 68.968C50.969 68.264 50.809 67.4373 50.809 66.488ZM57.033 66.488C57.033 66.008 56.9103 65.6347 56.665 65.368C56.4197 65.1013 56.105 64.968 55.721 64.968C55.337 64.968 55.0223 65.1013 54.777 65.368C54.5317 65.6347 54.409 66.008 54.409 66.488C54.409 66.968 54.5317 67.3413 54.777 67.608C55.0223 67.8747 55.337 68.008 55.721 68.008C56.105 68.008 56.4197 67.8747 56.665 67.608C56.9103 67.3413 57.033 66.968 57.033 66.488ZM65.412 61.864C65.9987 61.864 66.5053 61.9867 66.932 62.232C67.3587 62.4667 67.684 62.792 67.908 63.208V61.976H71.444V70.84C71.444 71.6827 71.2893 72.4507 70.98 73.144C70.6707 73.8373 70.1693 74.392 69.476 74.808C68.7933 75.224 67.9133 75.432 66.836 75.432C65.3853 75.432 64.2333 75.0907 63.38 74.408C62.5373 73.736 62.0573 72.8187 61.94 71.656H65.428C65.524 72.1253 65.908 72.36 66.58 72.36C66.996 72.36 67.3213 72.2533 67.556 72.04C67.7907 71.8267 67.908 71.4267 67.908 70.84V69.768C67.684 70.184 67.3587 70.5147 66.932 70.76C66.5053 70.9947 65.9987 71.112 65.412 71.112C64.708 71.112 64.0733 70.9307 63.508 70.568C62.9427 70.1947 62.4947 69.6613 62.164 68.968C61.844 68.264 61.684 67.4373 61.684 66.488C61.684 65.5387 61.844 64.7173 62.164 64.024C62.4947 63.32 62.9427 62.7867 63.508 62.424C64.0733 62.0507 64.708 61.864 65.412 61.864ZM67.908 66.488C67.908 66.008 67.7853 65.6347 67.54 65.368C67.2947 65.1013 66.98 64.968 66.596 64.968C66.212 64.968 65.8973 65.1013 65.652 65.368C65.4067 65.6347 65.284 66.008 65.284 66.488C65.284 66.968 65.4067 67.3413 65.652 67.608C65.8973 67.8747 66.212 68.008 66.596 68.008C66.98 68.008 67.2947 67.8747 67.54 67.608C67.7853 67.3413 67.908 66.968 67.908 66.488ZM81.775 66.408C81.775 66.6533 81.759 66.888 81.727 67.112H76.015C76.0683 67.8907 76.3937 68.28 76.991 68.28C77.375 68.28 77.6523 68.104 77.823 67.752H81.583C81.455 68.392 81.183 68.968 80.767 69.48C80.3617 69.9813 79.8443 70.3813 79.215 70.68C78.5963 70.968 77.9137 71.112 77.167 71.112C76.271 71.112 75.471 70.9253 74.767 70.552C74.0737 70.1787 73.5297 69.6453 73.135 68.952C72.751 68.248 72.559 67.4267 72.559 66.488C72.559 65.5493 72.751 64.7333 73.135 64.04C73.5297 63.336 74.0737 62.7973 74.767 62.424C75.471 62.0507 76.271 61.864 77.167 61.864C78.063 61.864 78.8577 62.0507 79.551 62.424C80.255 62.7867 80.799 63.3093 81.183 63.992C81.5777 64.6747 81.775 65.48 81.775 66.408ZM78.175 65.56C78.175 65.2613 78.079 65.0373 77.887 64.888C77.695 64.728 77.455 64.648 77.167 64.648C76.5377 64.648 76.1697 64.952 76.063 65.56H78.175ZM84.6584 71.128C84.0397 71.128 83.5437 70.9627 83.1704 70.632C82.7971 70.3013 82.6104 69.8853 82.6104 69.384C82.6104 68.872 82.7971 68.4507 83.1704 68.12C83.5437 67.7787 84.0397 67.608 84.6584 67.608C85.2664 67.608 85.7571 67.7787 86.1304 68.12C86.5037 68.4507 86.6904 68.872 86.6904 69.384C86.6904 69.8853 86.5037 70.3013 86.1304 70.632C85.7571 70.9627 85.2664 71.128 84.6584 71.128Z" fill="#FFF8E3"/>
</svg>
