<svg width="47" height="47" viewBox="0 0 47 47" fill="none" xmlns="http://www.w3.org/2000/svg">
<path d="M30.8331 14.1655C30.8125 14.1319 30.7874 14.105 30.7578 14.0846C30.7281 14.0642 30.6961 14.0543 30.6617 14.0549C30.6328 14.0544 30.595 14.06 30.5482 14.0715C30.4815 14.0839 30.4176 14.0885 30.3567 14.0854C30.3012 14.0812 30.214 14.0528 30.0949 14C30.0443 13.9749 30.0041 13.9521 29.9744 13.9317C29.836 13.8365 29.7114 13.7071 29.6006 13.5435C29.4954 13.3789 29.4409 13.2322 29.4373 13.1034C29.4348 12.9658 29.4715 12.8454 29.5474 12.7422C29.6595 12.5863 29.8342 12.4734 30.0715 12.4037C30.301 12.3382 30.4884 12.3093 30.6337 12.317C30.7822 12.3269 30.9527 12.3859 31.1453 12.4941C31.1849 12.5213 31.2454 12.5533 31.327 12.59C31.4119 12.6289 31.4623 12.6369 31.4781 12.6138C31.5099 12.5677 31.5168 12.5117 31.4989 12.446C31.4865 12.3793 31.4177 12.3028 31.2925 12.2167C31.2464 12.1849 31.1749 12.1406 31.0781 12.0838C30.9813 12.0269 30.9147 11.986 30.8785 11.961C30.7664 11.884 30.6982 11.8103 30.6737 11.74C30.665 11.7244 30.68 11.6885 30.7185 11.6325C30.7865 11.5336 30.8642 11.4948 30.9515 11.5161C31.1295 11.5608 31.2954 11.6337 31.4493 11.7347C31.6404 11.8661 31.7873 12.0303 31.8898 12.227C31.9979 12.4228 32.0468 12.6093 32.0365 12.7867C32.0261 12.9641 31.9565 13.1711 31.8277 13.4078C31.6841 13.6731 31.4808 13.9969 31.2178 14.3792C31.1453 14.4846 31.0885 14.5354 31.0475 14.5315C31.0098 14.5298 30.9794 14.521 30.9564 14.5052C30.9267 14.4848 30.9043 14.4573 30.8893 14.4226C30.8798 14.387 30.8716 14.3425 30.8646 14.2891C30.8599 14.2325 30.8494 14.1913 30.8331 14.1655ZM30.0929 13.569C30.2795 13.6294 30.4821 13.6595 30.7007 13.6593C30.7495 13.6589 30.7996 13.6497 30.8509 13.6316C30.9022 13.6134 30.9345 13.6017 30.9479 13.5964C30.9613 13.591 30.9855 13.5664 31.0206 13.5225C31.0612 13.4776 31.09 13.4392 31.1071 13.4073C31.1106 13.3951 31.1222 13.3642 31.1417 13.3146C31.1646 13.2672 31.1792 13.2214 31.1853 13.1771C31.187 13.1394 31.1776 13.0965 31.1573 13.0485C31.1369 13.0005 31.1107 12.968 31.0788 12.9509C31.0139 12.9111 30.9305 12.8877 30.8285 12.8806C30.7265 12.8736 30.6193 12.8848 30.5068 12.9142C30.3921 12.947 30.2893 12.9904 30.1987 13.0446C30.1136 13.0977 30.0484 13.1572 30.003 13.2231C29.9484 13.3167 29.9323 13.393 29.9548 13.4521C29.9665 13.4845 29.9889 13.512 30.0218 13.5346C30.0482 13.5528 30.0719 13.5642 30.0929 13.569Z" fill="#FFF8E3"/>
<path d="M34.5058 15.0413C34.487 15.0562 34.4594 15.0729 34.423 15.0914C34.3898 15.1075 34.3698 15.1208 34.3628 15.1314C34.581 15.3107 34.7496 15.4757 34.8686 15.6264C35.0546 15.8618 35.0817 16.1284 34.95 16.4262C34.8354 16.6748 34.662 16.8908 34.4297 17.0743C34.3701 17.1214 34.2788 17.1833 34.1559 17.26C34.0731 17.3101 33.9884 17.3287 33.9016 17.3156C33.818 17.3001 33.7489 17.2579 33.6944 17.1888C33.6373 17.1166 33.609 17.0549 33.6093 17.0037C33.6152 16.9531 33.633 16.9111 33.6625 16.8775C33.6946 16.8471 33.7483 16.8021 33.8236 16.7426L33.9187 16.6598C34.1021 16.5047 34.2554 16.3632 34.3786 16.2353C34.4276 16.1813 34.4495 16.1283 34.4442 16.0764C34.4445 16.0252 34.4236 15.9729 34.3814 15.9195C34.3418 15.8693 34.2868 15.8159 34.2166 15.7592C34.104 15.6748 34.025 15.62 33.9796 15.5947C33.9366 15.5726 33.8627 15.5469 33.7579 15.5175C33.7249 15.5079 33.6811 15.517 33.6266 15.5448C33.5721 15.5726 33.5417 15.589 33.5354 15.5939C33.3023 15.7118 33.0275 15.8576 32.7109 16.0312C32.6959 16.038 32.6611 16.0553 32.6066 16.083C32.5521 16.1108 32.5042 16.118 32.4631 16.1047C32.4213 16.0969 32.3837 16.0654 32.3503 16.0103C32.2192 15.7927 32.223 15.6265 32.3618 15.5118C32.5413 15.3648 32.7675 15.2091 33.0402 15.0446C33.2365 14.9252 33.397 14.8316 33.5217 14.7636C33.5769 14.7302 33.6443 14.6897 33.7239 14.6421C33.806 14.5976 33.8979 14.5429 33.9995 14.4779C34.0791 14.4303 34.1399 14.3975 34.1819 14.3797C34.2238 14.3618 34.2694 14.3615 34.3187 14.3786C34.3711 14.3933 34.4258 14.4368 34.4828 14.5089C34.5547 14.6 34.5938 14.6914 34.6001 14.7833C34.6064 14.8751 34.5781 14.9587 34.5152 15.0339L34.5058 15.0413Z" fill="#FFF8E3"/>
<path d="M9.22034 19.9788C9.07149 19.9089 8.93571 19.8441 8.813 19.7842C8.68656 19.7229 8.57319 19.6666 8.4729 19.6154L8.04184 19.3988C7.97504 19.7073 7.94218 20.0503 7.94325 20.4276C7.94308 20.5175 7.93011 20.5961 7.90436 20.6633C7.86572 20.7642 7.80193 20.8468 7.71299 20.9113C7.62548 20.972 7.51826 21.0059 7.39133 21.0129C7.31774 20.959 7.27185 20.8943 7.25366 20.8188C7.2369 20.7396 7.22872 20.6379 7.22914 20.5139C7.23755 19.9217 7.3717 19.292 7.63158 18.6248C7.75322 18.3073 7.89294 17.9818 8.05074 17.6481C8.20997 17.3108 8.3029 17.1129 8.32953 17.0546L8.5078 16.6731C8.51353 16.6582 8.52283 16.6339 8.53571 16.6003C8.55002 16.5629 8.5708 16.5366 8.59807 16.5214C8.62159 16.5047 8.65203 16.5035 8.68939 16.5178C8.78277 16.5536 8.81117 16.6416 8.7746 16.7818C8.68316 17.1322 8.61772 17.3813 8.57828 17.529C8.52994 17.6775 8.4952 17.7906 8.47405 17.8681C8.38111 18.1667 8.31233 18.3909 8.26773 18.5409C8.24086 18.6334 8.22845 18.6993 8.23051 18.7386C8.22884 18.7765 8.24266 18.8075 8.27199 18.8316C8.29901 18.8505 8.36151 18.8831 8.4595 18.9292C8.68767 19.038 9.07792 19.2325 9.63025 19.5126C10.1266 19.7713 10.4708 19.946 10.6631 20.0368C10.77 20.082 10.8914 20.1564 11.0274 20.2599C11.113 20.327 11.1691 20.3763 11.1956 20.4079C11.2183 20.438 11.2262 20.4732 11.2194 20.5134C11.214 20.5499 11.1908 20.6159 11.1499 20.7116C11.1227 20.7826 11.0863 20.8329 11.0407 20.8625C10.9927 20.887 10.9408 20.8885 10.8847 20.8671C10.8735 20.8628 10.8507 20.8497 10.8162 20.8279C10.5227 20.6213 9.99075 20.3382 9.22034 19.9788Z" fill="#FFF8E3"/>
<path d="M10.9452 14.506C11.2372 14.7616 11.4825 14.9673 11.681 15.1233C11.8793 15.2737 12.1054 15.4168 12.3595 15.5527C12.4267 15.3874 12.507 15.2526 12.6003 15.1482C12.7575 14.9722 12.9457 14.8668 13.1647 14.8318C13.3837 14.7969 13.5907 14.8263 13.7858 14.9202C13.9311 14.9857 14.0992 15.1037 14.2901 15.2743L14.635 15.5906C14.6559 15.6093 14.6691 15.6426 14.6746 15.6904C14.6801 15.7383 14.6752 15.7768 14.6599 15.806C14.6549 15.8176 14.6443 15.8323 14.6284 15.8502C14.5671 15.9188 14.4688 15.9598 14.3335 15.973C14.2013 15.9889 14.101 15.9691 14.0327 15.9134L13.7921 15.7145C13.7384 15.6665 13.6582 15.6002 13.5515 15.5155C13.4418 15.4282 13.3565 15.3735 13.2958 15.3514C13.2291 15.324 13.1704 15.3117 13.1195 15.3145C13.0687 15.3174 13.0286 15.3352 12.9993 15.368C12.978 15.3919 12.9644 15.4281 12.9586 15.4765C12.9555 15.522 12.9625 15.5712 12.9797 15.6241C13.0221 15.7747 13.1427 16.03 13.3414 16.3899C13.4164 16.516 13.4166 16.6208 13.342 16.7043C13.334 16.7133 13.3137 16.73 13.2811 16.7545C13.2591 16.767 13.2195 16.7933 13.1623 16.8334C13.1021 16.8708 13.0437 16.891 12.9872 16.8942C12.9334 16.8944 12.8782 16.8692 12.8215 16.8185C12.2578 16.3148 11.7604 15.9319 11.3293 15.67C11.115 15.5375 10.8871 15.3634 10.6455 15.1475L10.3458 14.8796L10.1892 14.7397C10.1475 14.7023 10.1317 14.648 10.1418 14.5766C10.152 14.5052 10.1824 14.4412 10.233 14.3845C10.2757 14.3368 10.3221 14.3058 10.3723 14.2917C10.4614 14.264 10.5434 14.2623 10.6184 14.2864C10.6961 14.3075 10.7752 14.3541 10.8557 14.426L10.9452 14.506Z" fill="#FFF8E3"/>
<path d="M15.908 13.1134C15.8865 13.1548 15.8434 13.1954 15.7787 13.2352C15.7549 13.2499 15.7249 13.266 15.6887 13.2836C15.6525 13.3011 15.6236 13.319 15.6018 13.337C15.6983 13.4327 15.8196 13.4848 15.9658 13.4935C16.11 13.4987 16.245 13.4625 16.3711 13.385C16.4801 13.3179 16.5625 13.2343 16.6183 13.1342C16.7045 12.9919 16.7664 12.8482 16.8038 12.703C16.8287 12.5984 16.8701 12.5283 16.928 12.4927C16.9655 12.4696 17.0094 12.4684 17.0597 12.4891C17.1142 12.5166 17.1614 12.5628 17.2012 12.6275C17.2432 12.6956 17.262 12.7568 17.2578 12.8111C17.2531 13.0018 17.195 13.1668 17.0833 13.3059C16.9751 13.443 16.8273 13.5692 16.64 13.6845C16.4458 13.804 16.2322 13.8767 15.9993 13.9027C15.7663 13.9286 15.54 13.9082 15.3204 13.8414C15.1021 13.7691 14.917 13.6552 14.765 13.4998C14.6728 13.411 14.5952 13.3155 14.5323 13.2133C14.4337 13.0532 14.3984 12.8965 14.4261 12.7432C14.4573 12.5878 14.5461 12.4039 14.6926 12.1917C14.8284 12.0001 14.9746 11.8561 15.1313 11.7597C15.2437 11.6905 15.3632 11.6404 15.4897 11.6095C15.8797 11.5104 16.1291 11.5495 16.2382 11.7266C16.3073 11.839 16.3248 12.0162 16.2905 12.258C16.2719 12.3728 16.2361 12.4864 16.1832 12.5988C16.1302 12.7113 16.0759 12.8175 16.0201 12.9176C15.9656 13.0122 15.9282 13.0775 15.908 13.1134ZM15.5409 12.036C15.527 12.021 15.505 12.0158 15.4748 12.0203C15.446 12.0192 15.4288 12.018 15.4233 12.0167C15.3272 12.0665 15.2503 12.1514 15.1926 12.2714C15.1329 12.3881 15.0989 12.5123 15.0908 12.6441C15.0861 12.7738 15.11 12.8812 15.1624 12.9664L15.1926 13.0041C15.2044 13.0157 15.2319 13.0222 15.2752 13.0238C15.3218 13.0233 15.3465 13.0175 15.3491 13.0065C15.4798 12.6771 15.573 12.4201 15.6285 12.2357C15.6364 12.2026 15.6235 12.1589 15.59 12.1044C15.569 12.0703 15.5527 12.0475 15.5409 12.036Z" fill="#FFF8E3"/>
<path d="M23.283 7.90867C23.5038 7.92983 23.6913 8.03806 23.8454 8.23336C23.7958 8.31094 23.7416 8.36865 23.6827 8.4065C23.6277 8.44022 23.5583 8.46039 23.4745 8.467C23.1268 8.4818 22.8294 8.50505 22.5822 8.53674C22.3391 8.56831 22.0817 8.65635 21.81 8.80085C21.5424 8.94524 21.3952 9.16791 21.3686 9.46889C21.2675 9.69214 21.2215 9.95169 21.2307 10.2475C21.2354 10.3995 21.2594 10.5928 21.3028 10.8276C21.3602 11.13 21.5148 11.2772 21.7667 11.2694C21.8307 11.2674 21.8805 11.2619 21.9163 11.2527C22.127 11.2102 22.3364 11.1236 22.5445 10.9931C22.6621 10.9134 22.7793 10.8237 22.8963 10.724C23.0131 10.6204 23.0833 10.5602 23.1068 10.5434L23.2588 10.4126C23.3015 10.3713 23.3324 10.3343 23.3514 10.3017C23.3743 10.265 23.3849 10.2206 23.3833 10.1686C23.3827 10.1487 23.3777 10.1188 23.3685 10.0791C23.2329 10.0953 23.0335 10.1155 22.7701 10.1397L22.5966 10.1571C22.5208 10.1674 22.4071 10.179 22.2555 10.1917C22.0915 10.1968 21.9604 10.1628 21.8621 10.0899C21.7677 10.0128 21.6917 9.88505 21.6341 9.70676C21.6458 9.69839 21.6595 9.68596 21.675 9.66947C21.6905 9.65298 21.7042 9.64455 21.7162 9.64418L21.9253 9.61366C22.3834 9.5434 22.7322 9.49855 22.9717 9.4791C23.1672 9.46102 23.3956 9.46993 23.6568 9.50583C24.0185 9.55462 24.2036 9.71495 24.212 9.98682C24.2151 10.0868 24.1984 10.1913 24.1618 10.3005C24.1436 10.3611 24.1138 10.4321 24.0723 10.5134C23.9865 10.7122 23.8658 10.886 23.7104 11.0349C23.5549 11.1838 23.3653 11.3278 23.1415 11.4668C22.9649 11.5803 22.8096 11.6692 22.6755 11.7334C22.5415 11.7976 22.3987 11.838 22.2471 11.8548C22.2113 11.8599 22.1553 11.8636 22.0794 11.866C21.7315 11.8768 21.412 11.7686 21.1208 11.5416C20.9772 11.426 20.8653 11.3014 20.7851 11.1678C20.7088 11.0301 20.6619 10.8735 20.6444 10.698C20.6327 10.5783 20.6261 10.4944 20.6246 10.4465C20.6175 10.2186 20.6389 10.0058 20.6888 9.80817C20.7386 9.60652 20.8349 9.29338 20.9778 8.86874C21.1231 8.52406 21.3676 8.27834 21.7112 8.1316C22.0547 7.98086 22.4203 7.89946 22.8082 7.88741C22.9721 7.88232 23.1304 7.8894 23.283 7.90867Z" fill="#FFF8E3"/>
<path d="M27.3239 9.97443C27.323 10.0162 27.3058 10.0758 27.2723 10.1533L26.986 10.8048C27.01 10.7957 27.0557 10.7516 27.1233 10.6726C27.1921 10.5898 27.2529 10.5253 27.3056 10.4793C27.3596 10.4295 27.3991 10.3982 27.4243 10.3853C27.6586 10.2718 27.8935 10.2343 28.1292 10.2727C28.3648 10.311 28.6171 10.3758 28.8861 10.467C28.9127 10.4756 28.9376 10.4962 28.9607 10.5289C28.9888 10.559 29.0003 10.5817 28.9954 10.5969C28.9917 10.6083 28.9735 10.6256 28.9409 10.6486C28.9094 10.6679 28.8829 10.6783 28.8614 10.6797C28.6085 10.682 28.3784 10.7043 28.1714 10.7467C27.9681 10.7902 27.7778 10.8716 27.6005 10.9909C27.1818 11.2717 26.885 11.6045 26.7102 11.9894C26.6643 12.0922 26.6085 12.1541 26.5429 12.1749C26.4786 12.1919 26.3988 12.1851 26.3037 12.1543C26.1971 12.1198 26.1167 12.0434 26.0625 11.925C26.0083 11.8066 25.9991 11.6922 26.0348 11.5818C26.169 11.1796 26.3666 10.5751 26.6275 9.76819C26.6632 9.65782 26.7126 9.5897 26.7756 9.56383C26.8398 9.53416 26.9367 9.54024 27.0661 9.58209C27.1612 9.61285 27.2325 9.66534 27.28 9.73955C27.3313 9.81498 27.3459 9.89328 27.3239 9.97443Z" fill="#FFF8E3"/>
<path d="M35.862 20.6703C35.8014 20.7019 35.7298 20.7613 35.6474 20.8484C35.6316 20.863 35.6139 20.8783 35.5943 20.8943C35.5761 20.9141 35.5542 20.9353 35.5286 20.9579C35.4092 20.8578 35.3352 20.7705 35.3067 20.6957C35.2853 20.6396 35.2822 20.5809 35.2973 20.5195C35.3162 20.4567 35.3535 20.3804 35.4092 20.2907C35.4444 20.2259 35.4563 20.1785 35.4449 20.1486C35.4335 20.1187 35.3971 20.0962 35.3357 20.0811C35.1951 20.0491 35.0754 19.9877 34.9766 19.8969C34.8792 19.8099 34.807 19.7047 34.76 19.5814C34.7073 19.4431 34.6877 19.2964 34.7014 19.1413C34.7203 18.9886 34.7722 18.8554 34.8573 18.7416C34.9447 18.6227 35.1024 18.5198 35.3304 18.4329C35.4948 18.3702 35.6697 18.3293 35.855 18.31C36.0403 18.2907 36.2028 18.3016 36.3425 18.3425C36.5001 18.3852 36.6378 18.4547 36.7559 18.551C36.8776 18.6458 36.967 18.768 37.024 18.9175C37.0425 18.9661 37.0549 19.0042 37.0611 19.0318C37.0617 19.0444 37.0662 19.0619 37.0748 19.0844C37.1075 19.1703 37.165 19.1976 37.2472 19.1663L37.29 19.1436C37.6999 18.9274 37.9979 18.7603 38.1841 18.6423C38.2013 18.6314 38.2291 18.6144 38.2673 18.5913C38.3056 18.5681 38.3378 18.5516 38.364 18.5416C38.4163 18.5217 38.4654 18.5158 38.5114 18.524C38.561 18.5307 38.6096 18.5572 38.6572 18.6032C38.6769 18.6214 38.6925 18.6454 38.7039 18.6753C38.7338 18.7538 38.739 18.846 38.7194 18.9519C38.7036 19.0564 38.6668 19.1282 38.6089 19.1674C38.3986 19.3118 38.1176 19.4788 37.7661 19.6684L36.9524 20.0942C36.4668 20.3477 36.1034 20.5397 35.862 20.6703ZM35.9923 18.9062C35.785 18.9124 35.6046 18.9448 35.4514 19.0032C35.2384 19.0844 35.1099 19.219 35.0659 19.407C35.1224 19.4539 35.1775 19.4864 35.2315 19.5044C35.2906 19.5247 35.3705 19.5434 35.4712 19.5607L35.6013 19.5817C35.7574 19.6207 35.9171 19.6241 36.0803 19.5918C36.2449 19.5633 36.4464 19.5079 36.6847 19.4256C36.7198 19.4166 36.7543 19.3948 36.7883 19.3605C36.8275 19.3284 36.8453 19.3024 36.842 19.2822C36.838 19.2495 36.8095 19.2026 36.7562 19.1416C36.7067 19.0791 36.6654 19.0435 36.6321 19.0348C36.4984 18.9873 36.3842 18.9516 36.2895 18.9278C36.1962 18.9077 36.0972 18.9005 35.9923 18.9062Z" fill="#FFF8E3"/>
<circle cx="23.5" cy="23.5" r="22.5" stroke="#FFF8E3" stroke-width="2"/>
<path d="M12.9582 26.857L11.0542 32.521H8.75825L6.85425 26.857H8.74225L9.91025 30.753L11.0702 26.857H12.9582ZM15.4998 32.577C15.0465 32.577 14.6385 32.4837 14.2758 32.297C13.9131 32.1103 13.6278 31.8437 13.4198 31.497C13.2171 31.145 13.1158 30.7343 13.1158 30.265C13.1158 29.7957 13.2171 29.3877 13.4198 29.041C13.6278 28.689 13.9131 28.4197 14.2758 28.233C14.6385 28.0463 15.0465 27.953 15.4998 27.953C15.9531 27.953 16.3611 28.0463 16.7238 28.233C17.0865 28.4197 17.3691 28.689 17.5718 29.041C17.7798 29.3877 17.8838 29.7957 17.8838 30.265C17.8838 30.7343 17.7798 31.145 17.5718 31.497C17.3691 31.8437 17.0865 32.1103 16.7238 32.297C16.3611 32.4837 15.9531 32.577 15.4998 32.577ZM15.4998 31.041C15.6651 31.041 15.8038 30.977 15.9158 30.849C16.0278 30.7157 16.0838 30.521 16.0838 30.265C16.0838 30.009 16.0278 29.817 15.9158 29.689C15.8038 29.5557 15.6651 29.489 15.4998 29.489C15.3345 29.489 15.1958 29.5557 15.0838 29.689C14.9718 29.817 14.9158 30.009 14.9158 30.265C14.9158 30.521 14.9691 30.7157 15.0758 30.849C15.1878 30.977 15.3291 31.041 15.4998 31.041ZM23.5377 28.009L20.6497 34.681H18.7057L19.8417 32.297L17.9617 28.009H19.9377L20.7857 30.297L21.5777 28.009H23.5377ZM23.6158 30.265C23.6158 29.7903 23.6958 29.3797 23.8558 29.033C24.0211 28.681 24.2451 28.4143 24.5278 28.233C24.8105 28.0463 25.1278 27.953 25.4798 27.953C25.7731 27.953 26.0265 28.0143 26.2398 28.137C26.4531 28.2543 26.6158 28.417 26.7278 28.625V28.009H28.4958V32.521H26.7278V31.905C26.6158 32.113 26.4531 32.2783 26.2398 32.401C26.0265 32.5183 25.7731 32.577 25.4798 32.577C25.1278 32.577 24.8105 32.4863 24.5278 32.305C24.2451 32.1183 24.0211 31.8517 23.8558 31.505C23.6958 31.153 23.6158 30.7397 23.6158 30.265ZM26.7278 30.265C26.7278 30.025 26.6665 29.8383 26.5438 29.705C26.4211 29.5717 26.2638 29.505 26.0718 29.505C25.8798 29.505 25.7225 29.5717 25.5998 29.705C25.4771 29.8383 25.4158 30.025 25.4158 30.265C25.4158 30.505 25.4771 30.6917 25.5998 30.825C25.7225 30.9583 25.8798 31.025 26.0718 31.025C26.2638 31.025 26.4211 30.9583 26.5438 30.825C26.6665 30.6917 26.7278 30.505 26.7278 30.265ZM30.9173 27.953C31.2106 27.953 31.464 28.0143 31.6773 28.137C31.8906 28.2543 32.0533 28.417 32.1653 28.625V28.009H33.9333V32.441C33.9333 32.8623 33.856 33.2463 33.7013 33.593C33.5466 33.9397 33.296 34.217 32.9493 34.425C32.608 34.633 32.168 34.737 31.6293 34.737C30.904 34.737 30.328 34.5663 29.9013 34.225C29.48 33.889 29.24 33.4303 29.1813 32.849H30.9253C30.9733 33.0837 31.1653 33.201 31.5013 33.201C31.7093 33.201 31.872 33.1477 31.9893 33.041C32.1066 32.9343 32.1653 32.7343 32.1653 32.441V31.905C32.0533 32.113 31.8906 32.2783 31.6773 32.401C31.464 32.5183 31.2106 32.577 30.9173 32.577C30.5653 32.577 30.248 32.4863 29.9653 32.305C29.6826 32.1183 29.4586 31.8517 29.2933 31.505C29.1333 31.153 29.0533 30.7397 29.0533 30.265C29.0533 29.7903 29.1333 29.3797 29.2933 29.033C29.4586 28.681 29.6826 28.4143 29.9653 28.233C30.248 28.0463 30.5653 27.953 30.9173 27.953ZM32.1653 30.265C32.1653 30.025 32.104 29.8383 31.9813 29.705C31.8586 29.5717 31.7013 29.505 31.5093 29.505C31.3173 29.505 31.16 29.5717 31.0373 29.705C30.9146 29.8383 30.8533 30.025 30.8533 30.265C30.8533 30.505 30.9146 30.6917 31.0373 30.825C31.16 30.9583 31.3173 31.025 31.5093 31.025C31.7013 31.025 31.8586 30.9583 31.9813 30.825C32.104 30.6917 32.1653 30.505 32.1653 30.265ZM39.0988 30.225C39.0988 30.3477 39.0908 30.465 39.0748 30.577H36.2188C36.2455 30.9663 36.4081 31.161 36.7068 31.161C36.8988 31.161 37.0375 31.073 37.1228 30.897H39.0028C38.9388 31.217 38.8028 31.505 38.5948 31.761C38.3921 32.0117 38.1335 32.2117 37.8188 32.361C37.5095 32.505 37.1681 32.577 36.7948 32.577C36.3468 32.577 35.9468 32.4837 35.5948 32.297C35.2481 32.1103 34.9761 31.8437 34.7788 31.497C34.5868 31.145 34.4908 30.7343 34.4908 30.265C34.4908 29.7957 34.5868 29.3877 34.7788 29.041C34.9761 28.689 35.2481 28.4197 35.5948 28.233C35.9468 28.0463 36.3468 27.953 36.7948 27.953C37.2428 27.953 37.6401 28.0463 37.9868 28.233C38.3388 28.4143 38.6108 28.6757 38.8028 29.017C39.0001 29.3583 39.0988 29.761 39.0988 30.225ZM37.2988 29.801C37.2988 29.6517 37.2508 29.5397 37.1548 29.465C37.0588 29.385 36.9388 29.345 36.7948 29.345C36.4801 29.345 36.2961 29.497 36.2428 29.801H37.2988ZM40.5405 32.585C40.2312 32.585 39.9832 32.5023 39.7965 32.337C39.6098 32.1717 39.5165 31.9637 39.5165 31.713C39.5165 31.457 39.6098 31.2463 39.7965 31.081C39.9832 30.9103 40.2312 30.825 40.5405 30.825C40.8445 30.825 41.0898 30.9103 41.2765 31.081C41.4632 31.2463 41.5565 31.457 41.5565 31.713C41.5565 31.9637 41.4632 32.1717 41.2765 32.337C41.0898 32.5023 40.8445 32.585 40.5405 32.585Z" fill="#FFF8E3"/>
</svg>
