<svg width="391" height="89" viewBox="0 0 391 89" fill="none" xmlns="http://www.w3.org/2000/svg">
<path d="M68.67 0.28L47.25 64H21.42L0 0.28H21.24L34.38 44.11L47.43 0.28H68.67ZM97.2626 64.63C92.1626 64.63 87.5726 63.58 83.4926 61.48C79.4126 59.38 76.2026 56.38 73.8626 52.48C71.5826 48.52 70.4426 43.9 70.4426 38.62C70.4426 33.34 71.5826 28.75 73.8626 24.85C76.2026 20.89 79.4126 17.86 83.4926 15.76C87.5726 13.66 92.1626 12.61 97.2626 12.61C102.363 12.61 106.953 13.66 111.033 15.76C115.113 17.86 118.293 20.89 120.573 24.85C122.913 28.75 124.083 33.34 124.083 38.62C124.083 43.9 122.913 48.52 120.573 52.48C118.293 56.38 115.113 59.38 111.033 61.48C106.953 63.58 102.363 64.63 97.2626 64.63ZM97.2626 47.35C99.1226 47.35 100.683 46.63 101.943 45.19C103.203 43.69 103.833 41.5 103.833 38.62C103.833 35.74 103.203 33.58 101.943 32.14C100.683 30.64 99.1226 29.89 97.2626 29.89C95.4026 29.89 93.8426 30.64 92.5826 32.14C91.3226 33.58 90.6926 35.74 90.6926 38.62C90.6926 41.5 91.2926 43.69 92.4926 45.19C93.7526 46.63 95.3426 47.35 97.2626 47.35ZM187.689 13.24L155.199 88.3H133.329L146.109 61.48L124.959 13.24H147.189L156.729 38.98L165.639 13.24H187.689ZM188.568 38.62C188.568 33.28 189.468 28.66 191.268 24.76C193.128 20.8 195.648 17.8 198.828 15.76C202.008 13.66 205.578 12.61 209.538 12.61C212.838 12.61 215.688 13.3 218.088 14.68C220.488 16 222.318 17.83 223.578 20.17V13.24H243.468V64H223.578V57.07C222.318 59.41 220.488 61.27 218.088 62.65C215.688 63.97 212.838 64.63 209.538 64.63C205.578 64.63 202.008 63.61 198.828 61.57C195.648 59.47 193.128 56.47 191.268 52.57C189.468 48.61 188.568 43.96 188.568 38.62ZM223.578 38.62C223.578 35.92 222.888 33.82 221.508 32.32C220.128 30.82 218.358 30.07 216.198 30.07C214.038 30.07 212.268 30.82 210.888 32.32C209.508 33.82 208.818 35.92 208.818 38.62C208.818 41.32 209.508 43.42 210.888 44.92C212.268 46.42 214.038 47.17 216.198 47.17C218.358 47.17 220.128 46.42 221.508 44.92C222.888 43.42 223.578 41.32 223.578 38.62ZM270.709 12.61C274.009 12.61 276.859 13.3 279.259 14.68C281.659 16 283.489 17.83 284.749 20.17V13.24H304.639V63.1C304.639 67.84 303.769 72.16 302.029 76.06C300.289 79.96 297.469 83.08 293.569 85.42C289.729 87.76 284.779 88.93 278.719 88.93C270.559 88.93 264.079 87.01 259.279 83.17C254.539 79.39 251.839 74.23 251.179 67.69H270.799C271.339 70.33 273.499 71.65 277.279 71.65C279.619 71.65 281.449 71.05 282.769 69.85C284.089 68.65 284.749 66.4 284.749 63.1V57.07C283.489 59.41 281.659 61.27 279.259 62.65C276.859 63.97 274.009 64.63 270.709 64.63C266.749 64.63 263.179 63.61 259.999 61.57C256.819 59.47 254.299 56.47 252.439 52.57C250.639 48.61 249.739 43.96 249.739 38.62C249.739 33.28 250.639 28.66 252.439 24.76C254.299 20.8 256.819 17.8 259.999 15.76C263.179 13.66 266.749 12.61 270.709 12.61ZM284.749 38.62C284.749 35.92 284.059 33.82 282.679 32.32C281.299 30.82 279.529 30.07 277.369 30.07C275.209 30.07 273.439 30.82 272.059 32.32C270.679 33.82 269.989 35.92 269.989 38.62C269.989 41.32 270.679 43.42 272.059 44.92C273.439 46.42 275.209 47.17 277.369 47.17C279.529 47.17 281.299 46.42 282.679 44.92C284.059 43.42 284.749 41.32 284.749 38.62ZM362.751 38.17C362.751 39.55 362.661 40.87 362.481 42.13H330.351C330.651 46.51 332.481 48.7 335.841 48.7C338.001 48.7 339.561 47.71 340.521 45.73H361.671C360.951 49.33 359.421 52.57 357.081 55.45C354.801 58.27 351.891 60.52 348.351 62.2C344.871 63.82 341.031 64.63 336.831 64.63C331.791 64.63 327.291 63.58 323.331 61.48C319.431 59.38 316.371 56.38 314.151 52.48C311.991 48.52 310.911 43.9 310.911 38.62C310.911 33.34 311.991 28.75 314.151 24.85C316.371 20.89 319.431 17.86 323.331 15.76C327.291 13.66 331.791 12.61 336.831 12.61C341.871 12.61 346.341 13.66 350.241 15.76C354.201 17.8 357.261 20.74 359.421 24.58C361.641 28.42 362.751 32.95 362.751 38.17ZM342.501 33.4C342.501 31.72 341.961 30.46 340.881 29.62C339.801 28.72 338.451 28.27 336.831 28.27C333.291 28.27 331.221 29.98 330.621 33.4H342.501ZM378.97 64.72C375.49 64.72 372.7 63.79 370.6 61.93C368.5 60.07 367.45 57.73 367.45 54.91C367.45 52.03 368.5 49.66 370.6 47.8C372.7 45.88 375.49 44.92 378.97 44.92C382.39 44.92 385.15 45.88 387.25 47.8C389.35 49.66 390.4 52.03 390.4 54.91C390.4 57.73 389.35 60.07 387.25 61.93C385.15 63.79 382.39 64.72 378.97 64.72Z" fill="#FFF8E3"/>
</svg>
