<svg width="412" height="412" viewBox="0 0 412 412" fill="none" xmlns="http://www.w3.org/2000/svg">
<circle cx="206" cy="206" r="204.5" stroke="#FFF8E3" stroke-width="3"/>
<path d="M77.67 176.28L56.25 240H30.42L9 176.28H30.24L43.38 220.11L56.43 176.28H77.67ZM106.263 240.63C101.163 240.63 96.5726 239.58 92.4926 237.48C88.4126 235.38 85.2026 232.38 82.8626 228.48C80.5826 224.52 79.4426 219.9 79.4426 214.62C79.4426 209.34 80.5826 204.75 82.8626 200.85C85.2026 196.89 88.4126 193.86 92.4926 191.76C96.5726 189.66 101.163 188.61 106.263 188.61C111.363 188.61 115.953 189.66 120.033 191.76C124.113 193.86 127.293 196.89 129.573 200.85C131.913 204.75 133.083 209.34 133.083 214.62C133.083 219.9 131.913 224.52 129.573 228.48C127.293 232.38 124.113 235.38 120.033 237.48C115.953 239.58 111.363 240.63 106.263 240.63ZM106.263 223.35C108.123 223.35 109.683 222.63 110.943 221.19C112.203 219.69 112.833 217.5 112.833 214.62C112.833 211.74 112.203 209.58 110.943 208.14C109.683 206.64 108.123 205.89 106.263 205.89C104.403 205.89 102.843 206.64 101.583 208.14C100.323 209.58 99.6926 211.74 99.6926 214.62C99.6926 217.5 100.293 219.69 101.493 221.19C102.753 222.63 104.343 223.35 106.263 223.35ZM196.689 189.24L164.199 264.3H142.329L155.109 237.48L133.959 189.24H156.189L165.729 214.98L174.639 189.24H196.689ZM197.568 214.62C197.568 209.28 198.468 204.66 200.268 200.76C202.128 196.8 204.648 193.8 207.828 191.76C211.008 189.66 214.578 188.61 218.538 188.61C221.838 188.61 224.688 189.3 227.088 190.68C229.488 192 231.318 193.83 232.578 196.17V189.24H252.468V240H232.578V233.07C231.318 235.41 229.488 237.27 227.088 238.65C224.688 239.97 221.838 240.63 218.538 240.63C214.578 240.63 211.008 239.61 207.828 237.57C204.648 235.47 202.128 232.47 200.268 228.57C198.468 224.61 197.568 219.96 197.568 214.62ZM232.578 214.62C232.578 211.92 231.888 209.82 230.508 208.32C229.128 206.82 227.358 206.07 225.198 206.07C223.038 206.07 221.268 206.82 219.888 208.32C218.508 209.82 217.818 211.92 217.818 214.62C217.818 217.32 218.508 219.42 219.888 220.92C221.268 222.42 223.038 223.17 225.198 223.17C227.358 223.17 229.128 222.42 230.508 220.92C231.888 219.42 232.578 217.32 232.578 214.62ZM279.709 188.61C283.009 188.61 285.859 189.3 288.259 190.68C290.659 192 292.489 193.83 293.749 196.17V189.24H313.639V239.1C313.639 243.84 312.769 248.16 311.029 252.06C309.289 255.96 306.469 259.08 302.569 261.42C298.729 263.76 293.779 264.93 287.719 264.93C279.559 264.93 273.079 263.01 268.279 259.17C263.539 255.39 260.839 250.23 260.179 243.69H279.799C280.339 246.33 282.499 247.65 286.279 247.65C288.619 247.65 290.449 247.05 291.769 245.85C293.089 244.65 293.749 242.4 293.749 239.1V233.07C292.489 235.41 290.659 237.27 288.259 238.65C285.859 239.97 283.009 240.63 279.709 240.63C275.749 240.63 272.179 239.61 268.999 237.57C265.819 235.47 263.299 232.47 261.439 228.57C259.639 224.61 258.739 219.96 258.739 214.62C258.739 209.28 259.639 204.66 261.439 200.76C263.299 196.8 265.819 193.8 268.999 191.76C272.179 189.66 275.749 188.61 279.709 188.61ZM293.749 214.62C293.749 211.92 293.059 209.82 291.679 208.32C290.299 206.82 288.529 206.07 286.369 206.07C284.209 206.07 282.439 206.82 281.059 208.32C279.679 209.82 278.989 211.92 278.989 214.62C278.989 217.32 279.679 219.42 281.059 220.92C282.439 222.42 284.209 223.17 286.369 223.17C288.529 223.17 290.299 222.42 291.679 220.92C293.059 219.42 293.749 217.32 293.749 214.62ZM371.751 214.17C371.751 215.55 371.661 216.87 371.481 218.13H339.351C339.651 222.51 341.481 224.7 344.841 224.7C347.001 224.7 348.561 223.71 349.521 221.73H370.671C369.951 225.33 368.421 228.57 366.081 231.45C363.801 234.27 360.891 236.52 357.351 238.2C353.871 239.82 350.031 240.63 345.831 240.63C340.791 240.63 336.291 239.58 332.331 237.48C328.431 235.38 325.371 232.38 323.151 228.48C320.991 224.52 319.911 219.9 319.911 214.62C319.911 209.34 320.991 204.75 323.151 200.85C325.371 196.89 328.431 193.86 332.331 191.76C336.291 189.66 340.791 188.61 345.831 188.61C350.871 188.61 355.341 189.66 359.241 191.76C363.201 193.8 366.261 196.74 368.421 200.58C370.641 204.42 371.751 208.95 371.751 214.17ZM351.501 209.4C351.501 207.72 350.961 206.46 349.881 205.62C348.801 204.72 347.451 204.27 345.831 204.27C342.291 204.27 340.221 205.98 339.621 209.4H351.501ZM387.97 240.72C384.49 240.72 381.7 239.79 379.6 237.93C377.5 236.07 376.45 233.73 376.45 230.91C376.45 228.03 377.5 225.66 379.6 223.8C381.7 221.88 384.49 220.92 387.97 220.92C391.39 220.92 394.15 221.88 396.25 223.8C398.35 225.66 399.4 228.03 399.4 230.91C399.4 233.73 398.35 236.07 396.25 237.93C394.15 239.79 391.39 240.72 387.97 240.72Z" fill="#FFF8E3"/>
<path d="M264.812 98.0257C264.64 97.7458 264.431 97.5209 264.184 97.3509C263.937 97.1808 263.67 97.0984 263.383 97.1035C263.143 97.1 262.828 97.1462 262.438 97.2423C261.882 97.3452 261.349 97.3837 260.841 97.3578C260.379 97.3233 259.652 97.0862 258.66 96.6465C258.238 96.437 257.903 96.2472 257.656 96.0772C256.503 95.2837 255.464 94.2054 254.541 92.842C253.664 91.4701 253.21 90.2477 253.18 89.1747C253.159 88.0279 253.465 87.0246 254.097 86.1646C255.031 84.8653 256.487 83.9248 258.465 83.3433C260.378 82.7979 261.939 82.5571 263.149 82.6209C264.387 82.7036 265.809 83.1958 267.414 84.0975C267.743 84.3241 268.248 84.5904 268.928 84.8961C269.635 85.2207 270.054 85.2869 270.187 85.0947C270.451 84.7102 270.509 84.2441 270.36 83.6964C270.257 83.1402 269.683 82.5031 268.64 81.7853C268.255 81.5208 267.66 81.1516 266.853 80.6775C266.046 80.2035 265.492 79.8626 265.19 79.6548C264.256 79.0125 263.687 78.3986 263.483 77.8132C263.411 77.6827 263.535 77.384 263.856 76.9171C264.423 76.0932 265.07 75.7698 265.798 75.9468C267.282 76.3197 268.664 76.9269 269.946 77.7684C271.539 78.8641 272.763 80.2318 273.618 81.8715C274.518 83.5026 274.926 85.0572 274.84 86.5353C274.753 88.0134 274.174 89.7386 273.1 91.7109C271.903 93.9218 270.209 96.6201 268.017 99.8059C267.413 100.685 266.94 101.108 266.598 101.075C266.284 101.061 266.031 100.988 265.839 100.856C265.591 100.686 265.405 100.457 265.28 100.168C265.201 99.8713 265.133 99.5005 265.074 99.0558C265.035 98.5837 264.947 98.2403 264.812 98.0257ZM258.643 93.0542C260.198 93.5576 261.887 93.8086 263.708 93.8074C264.115 93.804 264.532 93.7269 264.96 93.5759C265.387 93.4249 265.657 93.3272 265.768 93.2825C265.88 93.2379 266.082 93.0328 266.374 92.6672C266.712 92.2931 266.952 91.9729 267.095 91.7069C267.124 91.6056 267.22 91.3481 267.384 90.9344C267.574 90.5396 267.695 90.1577 267.747 89.7886C267.761 89.4744 267.683 89.1173 267.513 88.7173C267.343 88.3172 267.125 88.0459 266.859 87.9034C266.318 87.5719 265.623 87.3769 264.773 87.3183C263.923 87.2597 263.03 87.3531 262.092 87.5983C261.136 87.8711 260.28 88.2331 259.525 88.6844C258.816 89.1272 258.272 89.6232 257.894 90.1724C257.439 90.9517 257.305 91.5878 257.492 92.0805C257.59 92.3501 257.776 92.5793 258.051 92.7682C258.271 92.9193 258.468 93.0147 258.643 93.0542Z" fill="#FFF8E3"/>
<path d="M292.485 102.514C292.328 102.638 292.098 102.777 291.796 102.932C291.519 103.065 291.352 103.176 291.294 103.265C293.112 104.759 294.517 106.134 295.509 107.39C297.059 109.351 297.285 111.573 296.187 114.055C295.232 116.126 293.787 117.926 291.851 119.456C291.354 119.848 290.594 120.364 289.569 121.003C288.88 121.421 288.173 121.575 287.45 121.467C286.754 121.338 286.178 120.985 285.723 120.41C285.248 119.808 285.012 119.294 285.014 118.867C285.064 118.446 285.212 118.096 285.458 117.816C285.725 117.562 286.172 117.188 286.8 116.692L287.593 116.002C289.121 114.709 290.398 113.53 291.425 112.464C291.834 112.014 292.016 111.572 291.972 111.14C291.975 110.713 291.8 110.277 291.449 109.833C291.118 109.414 290.66 108.969 290.075 108.497C289.137 107.794 288.479 107.337 288.1 107.126C287.742 106.942 287.126 106.727 286.253 106.482C285.978 106.403 285.613 106.478 285.158 106.71C284.704 106.941 284.451 107.078 284.399 107.119C282.456 108.102 280.166 109.316 277.528 110.763C277.403 110.82 277.113 110.964 276.659 111.195C276.204 111.427 275.806 111.487 275.463 111.375C275.114 111.311 274.801 111.049 274.523 110.589C273.43 108.776 273.462 107.391 274.618 106.435C276.115 105.21 277.999 103.912 280.272 102.542C281.908 101.547 283.245 100.766 284.284 100.2C284.744 99.9215 285.306 99.584 285.969 99.1871C286.654 98.8165 287.419 98.3604 288.266 97.819C288.929 97.4221 289.436 97.1493 289.786 97.0005C290.135 96.8516 290.515 96.8487 290.926 96.9918C291.362 97.1142 291.818 97.4761 292.294 98.0777C292.893 98.8362 293.219 99.5983 293.271 100.364C293.324 101.129 293.088 101.826 292.564 102.452L292.485 102.514Z" fill="#FFF8E3"/>
<path d="M101.939 137.769C100.699 137.186 99.5675 136.646 98.545 136.147C97.4913 135.636 96.5466 135.167 95.7108 134.74L92.1186 132.935C91.562 135.506 91.2881 138.364 91.2971 141.509C91.2956 142.258 91.1876 142.913 90.973 143.473C90.651 144.313 90.1194 145.002 89.3782 145.539C88.649 146.045 87.7555 146.327 86.6977 146.386C86.0845 145.937 85.7021 145.398 85.5505 144.769C85.4108 144.108 85.3427 143.261 85.3461 142.227C85.4162 137.293 86.5341 132.045 88.6999 126.485C89.7135 123.84 90.8778 121.127 92.1928 118.346C93.5197 115.535 94.2942 113.886 94.5161 113.4L96.0017 110.221C96.0494 110.097 96.1269 109.894 96.2342 109.614C96.3535 109.303 96.5267 109.084 96.7539 108.957C96.9499 108.818 97.2036 108.808 97.5149 108.927C98.2931 109.225 98.5297 109.958 98.225 111.126C97.463 114.047 96.9176 116.123 96.589 117.353C96.1862 118.591 95.8966 119.533 95.7204 120.18C94.9459 122.667 94.3728 124.536 94.0011 125.786C93.7771 126.556 93.6737 127.106 93.6909 127.434C93.677 127.75 93.7922 128.008 94.0366 128.209C94.2617 128.366 94.7826 128.637 95.5992 129.021C97.5006 129.928 100.753 131.549 105.355 133.884C109.491 136.039 112.36 137.495 113.962 138.252C114.853 138.629 115.865 139.249 116.998 140.111C117.712 140.67 118.179 141.081 118.4 141.344C118.589 141.595 118.655 141.888 118.598 142.223C118.553 142.527 118.36 143.078 118.019 143.875C117.792 144.467 117.489 144.886 117.109 145.133C116.709 145.337 116.276 145.349 115.809 145.171C115.716 145.135 115.526 145.026 115.238 144.845C112.792 143.122 108.36 140.764 101.939 137.769Z" fill="#FFF8E3"/>
<path d="M114.271 96.9234C116.704 99.0531 118.748 100.768 120.403 102.068C122.055 103.321 123.939 104.513 126.057 105.646C126.617 104.269 127.286 103.145 128.063 102.275C129.373 100.809 130.941 99.9299 132.766 99.6386C134.591 99.3473 136.317 99.5928 137.942 100.375C139.153 100.921 140.554 101.904 142.145 103.326L145.019 105.962C145.193 106.118 145.303 106.395 145.349 106.793C145.395 107.192 145.354 107.513 145.226 107.756C145.185 107.853 145.097 107.976 144.964 108.125C144.453 108.697 143.634 109.038 142.507 109.149C141.405 109.281 140.569 109.116 140 108.652L137.995 106.994C137.548 106.594 136.879 106.041 135.99 105.336C135.075 104.608 134.365 104.152 133.859 103.968C133.303 103.74 132.814 103.637 132.39 103.661C131.966 103.685 131.632 103.834 131.388 104.107C131.21 104.306 131.098 104.607 131.049 105.011C131.023 105.39 131.082 105.8 131.225 106.241C131.578 107.496 132.583 109.623 134.239 112.623C134.864 113.673 134.866 114.547 134.244 115.243C134.178 115.317 134.008 115.457 133.737 115.661C133.554 115.765 133.224 115.985 132.747 116.318C132.245 116.63 131.758 116.799 131.288 116.825C130.839 116.827 130.379 116.616 129.907 116.194C125.209 111.996 121.064 108.806 117.471 106.623C115.686 105.52 113.787 104.068 111.774 102.269L109.276 100.037L107.971 98.8705C107.623 98.5596 107.491 98.1066 107.576 97.5117C107.66 96.9167 107.914 96.3831 108.336 95.9109C108.691 95.5132 109.078 95.2555 109.496 95.1375C110.239 94.907 110.923 94.8922 111.548 95.0932C112.195 95.2693 112.854 95.6573 113.525 96.257L114.271 96.9234Z" fill="#FFF8E3"/>
<path d="M153.264 87.8837C153.085 88.2287 152.726 88.5672 152.186 88.8991C151.988 89.0214 151.738 89.1557 151.436 89.3021C151.135 89.4484 150.894 89.5969 150.712 89.7476C151.516 90.5446 152.527 90.9791 153.746 91.0512C154.947 91.0948 156.072 90.7934 157.123 90.147C158.031 89.5879 158.718 88.8912 159.183 88.057C159.901 86.8712 160.417 85.6734 160.729 84.4636C160.936 83.5923 161.281 83.0081 161.764 82.7111C162.076 82.519 162.442 82.5091 162.861 82.6816C163.315 82.9109 163.709 83.2952 164.04 83.8346C164.39 84.4023 164.547 84.9122 164.512 85.3643C164.473 86.954 163.988 88.3287 163.058 89.4883C162.156 90.6305 160.925 91.682 159.363 92.6429C157.745 93.6387 155.965 94.2448 154.024 94.4611C152.083 94.6773 150.197 94.5071 148.367 93.9503C146.548 93.3476 145.005 92.3989 143.739 91.104C142.97 90.3637 142.323 89.5677 141.799 88.7161C140.978 87.3819 140.683 86.076 140.915 84.7985C141.175 83.5035 141.915 81.9716 143.135 80.2027C144.267 78.6064 145.485 77.4064 146.791 76.6027C147.728 76.0262 148.723 75.609 149.778 75.3513C153.028 74.5257 155.106 74.851 156.015 76.3272C156.592 77.264 156.737 78.7402 156.451 80.7558C156.296 81.7123 155.998 82.659 155.557 83.5958C155.116 84.5326 154.662 85.4182 154.197 86.2524C153.743 87.0407 153.432 87.5845 153.264 87.8837ZM150.204 78.9053C150.088 78.7809 149.905 78.7372 149.654 78.7743C149.414 78.7656 149.271 78.7558 149.225 78.7449C148.423 79.1598 147.782 79.8674 147.302 80.8675C146.804 81.8393 146.521 82.8744 146.454 83.9728C146.414 85.0538 146.613 85.9491 147.05 86.6588L147.302 86.9733C147.401 87.0694 147.63 87.1239 147.99 87.137C148.379 87.1326 148.584 87.0846 148.606 86.9929C149.696 84.2479 150.472 82.1067 150.935 80.5693C151 80.2942 150.893 79.9295 150.614 79.4753C150.439 79.1914 150.302 79.0014 150.204 78.9053Z" fill="#FFF8E3"/>
<path d="M209.907 46.9782C211.747 47.1544 213.309 48.0563 214.594 49.6839C214.18 50.3304 213.728 50.8113 213.238 51.1267C212.78 51.4077 212.201 51.5758 211.503 51.6309C208.605 51.7542 206.127 51.948 204.067 52.2121C202.041 52.4751 199.896 53.2088 197.632 54.413C195.402 55.6162 194.176 57.4718 193.954 59.98C193.111 61.8404 192.728 64.0033 192.805 66.4688C192.844 67.7348 193.044 69.3461 193.405 71.3025C193.883 73.8221 195.172 75.0494 197.271 74.9842C197.804 74.9676 198.22 74.9213 198.517 74.8454C200.274 74.4906 202.019 73.7694 203.753 72.6817C204.733 72.0176 205.71 71.2703 206.685 70.4396C207.658 69.5756 208.243 69.0739 208.439 68.9344L209.705 67.8445C210.062 67.4999 210.319 67.1918 210.477 66.9201C210.668 66.614 210.756 66.2444 210.743 65.8113C210.738 65.6447 210.696 65.3959 210.619 65.0648C209.49 65.1999 207.828 65.3683 205.633 65.5699L204.187 65.7149C203.556 65.8012 202.608 65.8973 201.344 66.0033C199.978 66.0458 198.886 65.7629 198.066 65.1547C197.279 64.5122 196.646 63.448 196.166 61.9622C196.264 61.8924 196.378 61.7889 196.507 61.6515C196.636 61.5141 196.75 61.4438 196.85 61.4407L198.593 61.1864C202.41 60.6009 205.317 60.2271 207.313 60.0651C208.942 59.9144 210.845 59.9886 213.022 60.2878C216.036 60.6944 217.579 62.0305 217.649 64.2961C217.675 65.129 217.535 66.0004 217.23 66.9103C217.079 67.4153 216.831 68.0066 216.485 68.6843C215.769 70.3407 214.764 71.7893 213.468 73.0301C212.173 74.271 210.593 75.4706 208.728 76.6291C207.256 77.5753 205.962 78.3158 204.845 78.8508C203.728 79.3857 202.538 79.7229 201.275 79.8622C200.976 79.9048 200.51 79.9359 199.877 79.9556C196.978 80.0457 194.316 79.1446 191.889 77.2524C190.692 76.2891 189.759 75.2509 189.091 74.1378C188.455 72.9904 188.064 71.6852 187.919 70.2223C187.821 69.2249 187.766 68.5263 187.754 68.1265C187.695 66.2274 187.873 64.4543 188.289 62.8073C188.703 61.1269 189.506 58.5174 190.697 54.9787C191.908 52.1064 193.945 50.0588 196.809 48.8359C199.671 47.5797 202.718 46.9014 205.95 46.801C207.316 46.7585 208.635 46.8176 209.907 46.9782Z" fill="#FFF8E3"/>
<path d="M238.759 64.1686C238.751 64.5166 238.608 65.0133 238.33 65.6588L235.943 71.088C236.143 71.0125 236.524 70.6453 237.088 69.9867C237.661 69.2964 238.168 68.7595 238.607 68.376C239.057 67.9609 239.386 67.6996 239.596 67.5923C241.548 66.6471 243.506 66.3343 245.47 66.654C247.433 66.9736 249.536 67.5134 251.778 68.2732C252 68.345 252.207 68.5171 252.399 68.7894C252.633 69.0403 252.73 69.2292 252.689 69.3561C252.658 69.4512 252.506 69.5949 252.234 69.7871C251.972 69.9476 251.751 70.0339 251.572 70.046C249.464 70.065 247.547 70.2509 245.822 70.6038C244.128 70.9669 242.542 71.6453 241.065 72.6389C237.575 74.9789 235.102 77.7525 233.645 80.9596C233.262 81.8169 232.798 82.3324 232.251 82.506C231.715 82.6478 231.05 82.5906 230.257 82.3342C229.369 82.047 228.7 81.41 228.248 80.4232C227.796 79.4364 227.719 78.4831 228.017 77.5633C229.135 74.2116 230.782 69.1738 232.956 62.4499C233.254 61.5302 233.665 60.9625 234.19 60.747C234.725 60.4997 235.532 60.5504 236.611 60.8991C237.404 61.1555 237.998 61.5929 238.393 62.2112C238.821 62.8399 238.943 63.4923 238.759 64.1686Z" fill="#FFF8E3"/>
<path d="M301.587 146.566C301.082 146.83 300.486 147.325 299.799 148.05C299.667 148.172 299.519 148.299 299.356 148.433C299.205 148.598 299.022 148.774 298.809 148.963C297.813 148.129 297.197 147.401 296.96 146.778C296.782 146.311 296.755 145.821 296.881 145.31C297.039 144.786 297.349 144.15 297.813 143.403C298.107 142.863 298.206 142.468 298.111 142.219C298.016 141.97 297.713 141.782 297.201 141.656C296.029 141.389 295.032 140.878 294.208 140.121C293.397 139.396 292.795 138.52 292.404 137.492C291.964 136.339 291.802 135.117 291.916 133.825C292.073 132.552 292.506 131.442 293.215 130.494C293.943 129.503 295.257 128.646 297.157 127.921C298.527 127.399 299.985 127.058 301.529 126.897C303.073 126.737 304.427 126.827 305.592 127.168C306.904 127.524 308.052 128.103 309.036 128.905C310.051 129.696 310.796 130.714 311.27 131.96C311.425 132.365 311.528 132.682 311.58 132.912C311.584 133.017 311.622 133.163 311.693 133.35C311.966 134.067 312.446 134.294 313.131 134.033L313.487 133.844C316.903 132.043 319.386 130.65 320.938 129.666C321.081 129.576 321.313 129.434 321.632 129.241C321.951 129.048 322.219 128.91 322.437 128.827C322.873 128.661 323.283 128.612 323.665 128.68C324.079 128.737 324.484 128.957 324.88 129.341C325.045 129.492 325.175 129.692 325.27 129.942C325.519 130.596 325.562 131.364 325.399 132.247C325.267 133.117 324.96 133.716 324.478 134.042C322.725 135.246 320.384 136.637 317.455 138.217L310.673 141.765C306.627 143.878 303.599 145.478 301.587 146.566ZM302.673 131.865C300.945 131.918 299.443 132.187 298.165 132.674C296.39 133.35 295.319 134.472 294.953 136.038C295.423 136.43 295.883 136.701 296.333 136.85C296.825 137.019 297.491 137.176 298.331 137.319L299.414 137.495C300.715 137.82 302.046 137.848 303.406 137.579C304.778 137.341 306.457 136.88 308.443 136.194C308.735 136.119 309.023 135.937 309.306 135.651C309.633 135.384 309.782 135.167 309.753 134.999C309.721 134.726 309.483 134.335 309.039 133.827C308.627 133.306 308.282 133.01 308.004 132.937C306.89 132.541 305.939 132.244 305.15 132.045C304.372 131.878 303.547 131.818 302.673 131.865Z" fill="#FFF8E3"/>
</svg>
